<?xml version="1.0" encoding="UTF-8"?>
<svg xmlns="http://www.w3.org/2000/svg" xmlns:xlink="http://www.w3.org/1999/xlink" width="16px" height="16px" viewBox="0 0 16 16" version="1.1">
<g id="surface1">
<path style=" stroke:none;fill-rule:nonzero;fill:rgb(95.294118%,83.137256%,0%);fill-opacity:1;" d="M 7.941406 2.671875 L 6.742188 3.605469 C 6.117188 3.585938 4.898438 3.726562 4.234375 3.96875 C 3.625 3.582031 3.089844 3.15625 3.089844 3.15625 L 2.34375 4.40625 C 1.917969 4.632812 1.488281 4.886719 1.105469 5.226562 L 0.128906 4.828125 C 0.71875 6.011719 1.109375 7.199219 2.191406 7.917969 C 3.902344 5.210938 11.867188 5.460938 13.613281 7.902344 C 14.746094 7.3125 15.183594 6.046875 15.628906 4.871094 C 15.277344 4.988281 14.929688 5.113281 14.582031 5.242188 C 14.347656 4.984375 13.796875 4.59375 13.484375 4.40625 C 13.1875 3.859375 12.753906 3.125 12.753906 3.125 C 12.753906 3.125 12.242188 3.503906 11.644531 3.921875 C 10.84375 3.773438 9.871094 3.59375 9.054688 3.636719 C 8.5 3.179688 7.941406 2.671875 7.941406 2.671875 Z M 7.941406 2.671875 "/>
<path style=" stroke:none;fill-rule:nonzero;fill:rgb(100%,91.37255%,32.549021%);fill-opacity:1;" d="M 0.738281 7.347656 L 2.152344 10.773438 C 4.605469 14.011719 10.875 14.234375 13.609375 10.835938 L 15.125 7.332031 C 14.425781 8.367188 13.285156 9.085938 12.582031 9.472656 C 12.082031 9.746094 10.929688 9.914062 10.929688 9.914062 L 7.910156 8.347656 L 4.867188 9.882812 C 4.867188 9.882812 3.730469 9.699219 3.214844 9.457031 C 2.175781 8.902344 1.476562 8.25 0.742188 7.351562 Z M 0.738281 7.347656 "/>
</g>
</svg>
