<?xml version="1.0" encoding="UTF-8" standalone="no"?>
<svg
   xmlns:dc="http://purl.org/dc/elements/1.1/"
   xmlns:cc="http://creativecommons.org/ns#"
   xmlns:rdf="http://www.w3.org/1999/02/22-rdf-syntax-ns#"
   xmlns:svg="http://www.w3.org/2000/svg"
   xmlns="http://www.w3.org/2000/svg"
   xmlns:sodipodi="http://sodipodi.sourceforge.net/DTD/sodipodi-0.dtd"
   xmlns:inkscape="http://www.inkscape.org/namespaces/inkscape"
   width="40"
   height="40"
   viewBox="0 0 40 40"
   version="1.1"
   id="svg47"
   sodipodi:docname="pluginIcon.svg"
   inkscape:version="">
  <metadata
     id="metadata53">
    <rdf:RDF>
      <cc:Work
         rdf:about="">
        <dc:format>image/svg+xml</dc:format>
        <dc:type
           rdf:resource="http://purl.org/dc/dcmitype/StillImage" />
        <dc:title></dc:title>
      </cc:Work>
    </rdf:RDF>
  </metadata>
  <defs
     id="defs51" />
  <sodipodi:namedview
     pagecolor="#ffffff"
     bordercolor="#666666"
     borderopacity="1"
     objecttolerance="10"
     gridtolerance="10"
     guidetolerance="10"
     inkscape:pageopacity="0"
     inkscape:pageshadow="2"
     inkscape:window-width="1920"
     inkscape:window-height="1050"
     id="namedview49"
     showgrid="true"
     inkscape:zoom="13.421875"
     inkscape:cx="13.960419"
     inkscape:cy="22.901048"
     inkscape:window-x="0"
     inkscape:window-y="30"
     inkscape:window-maximized="1"
     inkscape:current-layer="svg47">
    <inkscape:grid
       type="xygrid"
       id="grid55" />
  </sodipodi:namedview>
  <g
     id="surface1"
     transform="matrix(2.3225668,0,0,2.3225668,1.7007148,1.458392)">
    <path
       style="fill:#f3d400;fill-opacity:1;fill-rule:nonzero;stroke:none"
       d="M 7.941406,2.671875 6.742188,3.605469 C 6.117188,3.585938 4.898438,3.726562 4.234375,3.96875 3.625,3.582031 3.089844,3.15625 3.089844,3.15625 l -0.746094,1.25 C 1.917969,4.632812 1.488281,4.886719 1.105469,5.226562 L 0.128906,4.828125 C 0.71875,6.011719 1.109375,7.199219 2.191406,7.917969 3.902344,5.210938 11.867188,5.460938 13.613281,7.902344 14.746094,7.3125 15.183594,6.046875 15.628906,4.871094 15.277344,4.988281 14.929688,5.113281 14.582031,5.242188 14.347656,4.984375 13.796875,4.59375 13.484375,4.40625 13.1875,3.859375 12.753906,3.125 12.753906,3.125 c 0,0 -0.511718,0.378906 -1.109375,0.796875 C 10.84375,3.773438 9.871094,3.59375 9.054688,3.636719 8.5,3.179688 7.941406,2.671875 7.941406,2.671875 Z m 0,0"
       id="path42"
       inkscape:connector-curvature="0" />
    <path
       style="fill:#ffe851;fill-opacity:1;fill-rule:nonzero;stroke:none"
       d="m 0.738281,7.347656 1.414063,3.425782 c 2.453125,3.238281 8.722656,3.460937 11.457031,0.0625 L 15.125,7.332031 c -0.699219,1.035157 -1.839844,1.753907 -2.542969,2.140625 -0.5,0.273438 -1.652343,0.441406 -1.652343,0.441406 L 7.910156,8.347656 4.867188,9.882812 c 0,0 -1.136719,-0.183593 -1.652344,-0.425781 C 2.175781,8.902344 1.476562,8.25 0.742188,7.351562 Z m 0,0"
       id="path44"
       inkscape:connector-curvature="0" />
  </g>
</svg>
